<svg width="61" height="60" viewBox="0 0 61 60" fill="none" xmlns="http://www.w3.org/2000/svg">
<path d="M9.88719 7.065L30.4297 2.5L50.9722 7.065C51.5273 7.18841 52.0238 7.49741 52.3797 7.94101C52.7356 8.38461 52.9296 8.93629 52.9297 9.505V34.4725C52.9295 36.9418 52.3197 39.3729 51.1544 41.55C49.9891 43.7271 48.3044 45.5828 46.2497 46.9525L30.4297 57.5L14.6097 46.9525C12.5554 45.5831 10.8708 43.7277 9.70556 41.5511C8.54028 39.3745 7.93028 36.9439 7.92969 34.475V9.505C7.92979 8.93629 8.12378 8.38461 8.47966 7.94101C8.83554 7.49741 9.33203 7.18841 9.88719 7.065ZM12.9297 11.51V34.4725C12.9297 36.1186 13.3361 37.7393 14.1128 39.1907C14.8896 40.6421 16.0126 41.8793 17.3822 42.7925L30.4297 51.4925L43.4772 42.7925C44.8465 41.8795 45.9692 40.6427 46.7459 39.1918C47.5226 37.7409 47.9292 36.1207 47.9297 34.475V11.51L30.4297 7.625L12.9297 11.51Z" fill="white"/>
</svg>
