<svg width="61" height="60" viewBox="0 0 61 60" fill="none" xmlns="http://www.w3.org/2000/svg">
<path d="M8.35742 7.5H53.3574C54.0205 7.5 54.6563 7.76339 55.1252 8.23223C55.594 8.70107 55.8574 9.33696 55.8574 10V50C55.8574 50.663 55.594 51.2989 55.1252 51.7678C54.6563 52.2366 54.0205 52.5 53.3574 52.5H8.35742C7.69438 52.5 7.0585 52.2366 6.58965 51.7678C6.12081 51.2989 5.85742 50.663 5.85742 50V10C5.85742 9.33696 6.12081 8.70107 6.58965 8.23223C7.0585 7.76339 7.69438 7.5 8.35742 7.5ZM50.8574 30H10.8574V47.5H50.8574V30ZM50.8574 20V12.5H10.8574V20H50.8574Z" fill="white"/>
</svg>
