<svg width="61" height="60" viewBox="0 0 61 60" fill="none" xmlns="http://www.w3.org/2000/svg">
<path d="M22.557 45C22.2598 47.0857 21.2201 48.9942 19.6287 50.3749C18.0374 51.7555 16.0013 52.5157 13.8945 52.5157C11.7877 52.5157 9.75167 51.7555 8.16033 50.3749C6.56899 48.9942 5.52923 47.0857 5.23203 45H2.64453V15C2.64453 14.337 2.90792 13.7011 3.37676 13.2322C3.84561 12.7634 4.48149 12.5 5.14453 12.5H40.1445C40.8076 12.5 41.4435 12.7634 41.9123 13.2322C42.3811 13.7011 42.6445 14.337 42.6445 15V20H50.1445L57.6445 30.14V45H52.557C52.2598 47.0857 51.2201 48.9942 49.6287 50.3749C48.0374 51.7555 46.0013 52.5157 43.8945 52.5157C41.7877 52.5157 39.7517 51.7555 38.1603 50.3749C36.569 48.9942 35.5292 47.0857 35.232 45H22.557ZM37.6445 17.5H7.64453V37.625C8.63094 36.618 9.84604 35.8642 11.1864 35.4278C12.5268 34.9914 13.9528 34.8853 15.343 35.1185C16.7332 35.3517 18.0465 35.9173 19.1711 36.7673C20.2956 37.6172 21.1982 38.7262 21.802 40H35.987C36.407 39.1175 36.9695 38.315 37.6445 37.625V17.5ZM42.6445 32.5H52.6445V31.7875L47.6245 25H42.6445V32.5ZM43.8945 47.5C44.8894 47.5 45.8436 47.1048 46.5471 46.4013C47.2506 45.6978 47.6458 44.7436 47.6458 43.7488C47.6458 42.7539 47.2506 41.7997 46.5471 41.0962C45.8436 40.3927 44.8894 39.9975 43.8945 39.9975C42.8996 39.9975 41.9455 40.3927 41.242 41.0962C40.5385 41.7997 40.1433 42.7539 40.1433 43.7488C40.1433 44.7436 40.5385 45.6978 41.242 46.4013C41.9455 47.1048 42.8996 47.5 43.8945 47.5ZM17.6445 43.75C17.6445 43.2575 17.5475 42.7699 17.3591 42.3149C17.1706 41.86 16.8944 41.4466 16.5462 41.0984C16.198 40.7501 15.7846 40.4739 15.3296 40.2855C14.8746 40.097 14.387 40 13.8945 40C13.4021 40 12.9144 40.097 12.4595 40.2855C12.0045 40.4739 11.5911 40.7501 11.2429 41.0984C10.8947 41.4466 10.6184 41.86 10.43 42.3149C10.2415 42.7699 10.1445 43.2575 10.1445 43.75C10.1445 44.7446 10.5396 45.6984 11.2429 46.4016C11.9461 47.1049 12.9 47.5 13.8945 47.5C14.8891 47.5 15.8429 47.1049 16.5462 46.4016C17.2494 45.6984 17.6445 44.7446 17.6445 43.75Z" fill="white"/>
</svg>
