<svg width="61" height="60" viewBox="0 0 61 60" fill="none" xmlns="http://www.w3.org/2000/svg">
<path d="M18.0723 17.5V7.5C18.0723 6.83696 18.3357 6.20107 18.8045 5.73223C19.2733 5.26339 19.9092 5 20.5723 5H53.0723C53.7353 5 54.3712 5.26339 54.84 5.73223C55.3089 6.20107 55.5723 6.83696 55.5723 7.5V40C55.5723 40.663 55.3089 41.2989 54.84 41.7678C54.3712 42.2366 53.7353 42.5 53.0723 42.5H43.0723V52.4825C43.0723 53.8725 41.9498 55 40.5548 55H8.08977C7.75907 55.0003 7.43156 54.9354 7.12597 54.809C6.82039 54.6826 6.54273 54.4972 6.30889 54.2634C6.07506 54.0295 5.88963 53.7519 5.76323 53.4463C5.63683 53.1407 5.57194 52.8132 5.57227 52.4825L5.57977 20.0175C5.57977 18.6275 6.70227 17.5 8.09727 17.5H18.0723ZM23.0723 17.5H40.5548C41.9448 17.5 43.0723 18.6225 43.0723 20.0175V37.5H50.5723V10H23.0723V17.5Z" fill="white"/>
</svg>
