<svg width="901" height="454" viewBox="0 0 901 454" fill="none" xmlns="http://www.w3.org/2000/svg">
<path d="M900 420.937V421.437H900.5V420.937H900ZM3 420.937V420.437H2.5V420.937H3ZM3 454L5.88678 449H0.11322L3 454ZM899.5 0V1.00223H900.5V0H899.5ZM899.5 3.00669V5.01115H900.5V3.00669H899.5ZM899.5 7.01562V9.02008H900.5V7.01562H899.5ZM899.5 11.0245V13.029H900.5V11.0245H899.5ZM899.5 15.0335V17.0379H900.5V15.0335H899.5ZM899.5 19.0424V21.0468H900.5V19.0424H899.5ZM899.5 23.0513V25.0558H900.5V23.0513H899.5ZM899.5 27.0602V29.0647H900.5V27.0602H899.5ZM899.5 31.0692V33.0736H900.5V31.0692H899.5ZM899.5 35.0781V37.0825H900.5V35.0781H899.5ZM899.5 39.087V41.0915H900.5V39.087H899.5ZM899.5 43.0959V45.1004H900.5V43.0959H899.5ZM899.5 47.1049V49.1093H900.5V47.1049H899.5ZM899.5 51.1138V53.1183H900.5V51.1138H899.5ZM899.5 55.1227V57.1272H900.5V55.1227H899.5ZM899.5 59.1316V61.1361H900.5V59.1316H899.5ZM899.5 63.1406V65.145H900.5V63.1406H899.5ZM899.5 67.1495V69.154H900.5V67.1495H899.5ZM899.5 71.1584V73.1629H900.5V71.1584H899.5ZM899.5 75.1674V77.1718H900.5V75.1674H899.5ZM899.5 79.1763V81.1807H900.5V79.1763H899.5ZM899.5 83.1852V85.1897H900.5V83.1852H899.5ZM899.5 87.1941V89.1986H900.5V87.1941H899.5ZM899.5 91.2031V93.2075H900.5V91.2031H899.5ZM899.5 95.212V97.2164H900.5V95.212H899.5ZM899.5 99.2209V101.225H900.5V99.2209H899.5ZM899.5 103.23V105.234H900.5V103.23H899.5ZM899.5 107.239V109.243H900.5V107.239H899.5ZM899.5 111.248V113.252H900.5V111.248H899.5ZM899.5 115.257V117.261H900.5V115.257H899.5ZM899.5 119.266V121.27H900.5V119.266H899.5ZM899.5 123.274V125.279H900.5V123.274H899.5ZM899.5 127.283V129.288H900.5V127.283H899.5ZM899.5 131.292V133.297H900.5V131.292H899.5ZM899.5 135.301V137.306H900.5V135.301H899.5ZM899.5 139.31V141.315H900.5V139.31H899.5ZM899.5 143.319V145.323H900.5V143.319H899.5ZM899.5 147.328V149.332H900.5V147.328H899.5ZM899.5 151.337V153.341H900.5V151.337H899.5ZM899.5 155.346V157.35H900.5V155.346H899.5ZM899.5 159.355V161.359H900.5V159.355H899.5ZM899.5 163.364V165.368H900.5V163.364H899.5ZM899.5 167.372V169.377H900.5V167.372H899.5ZM899.5 171.381V173.386H900.5V171.381H899.5ZM899.5 175.39V177.395H900.5V175.39H899.5ZM899.5 179.399V181.404H900.5V179.399H899.5ZM899.5 183.408V185.413H900.5V183.408H899.5ZM899.5 187.417V189.422H900.5V187.417H899.5ZM899.5 191.426V193.43H900.5V191.426H899.5ZM899.5 195.435V197.439H900.5V195.435H899.5ZM899.5 199.444V201.448H900.5V199.444H899.5ZM899.5 203.453V205.457H900.5V203.453H899.5ZM899.5 207.462V209.466H900.5V207.462H899.5ZM899.5 211.471V213.475H900.5V211.471H899.5ZM899.5 215.479V217.484H900.5V215.479H899.5ZM899.5 219.488V221.493H900.5V219.488H899.5ZM899.5 223.497V225.502H900.5V223.497H899.5ZM899.5 227.506V229.511H900.5V227.506H899.5ZM899.5 231.515V233.52H900.5V231.515H899.5ZM899.5 235.524V237.528H900.5V235.524H899.5ZM899.5 239.533V241.537H900.5V239.533H899.5ZM899.5 243.542V245.546H900.5V243.542H899.5ZM899.5 247.551V249.555H900.5V247.551H899.5ZM899.5 251.56V253.564H900.5V251.56H899.5ZM899.5 255.569V257.573H900.5V255.569H899.5ZM899.5 259.577V261.582H900.5V259.577H899.5ZM899.5 263.586V265.591H900.5V263.586H899.5ZM899.5 267.595V269.6H900.5V267.595H899.5ZM899.5 271.604V273.609H900.5V271.604H899.5ZM899.5 275.613V277.618H900.5V275.613H899.5ZM899.5 279.622V281.626H900.5V279.622H899.5ZM899.5 283.631V285.635H900.5V283.631H899.5ZM899.5 287.64V289.644H900.5V287.64H899.5ZM899.5 291.649V293.653H900.5V291.649H899.5ZM899.5 295.658V297.662H900.5V295.658H899.5ZM899.5 299.667V301.671H900.5V299.667H899.5ZM899.5 303.675V305.68H900.5V303.675H899.5ZM899.5 307.684V309.689H900.5V307.684H899.5ZM899.5 311.693V313.698H900.5V311.693H899.5ZM899.5 315.702V317.707H900.5V315.702H899.5ZM899.5 319.711V321.716H900.5V319.711H899.5ZM899.5 323.72V325.724H900.5V323.72H899.5ZM899.5 327.729V329.733H900.5V327.729H899.5ZM899.5 331.738V333.742H900.5V331.738H899.5ZM899.5 335.747V337.751H900.5V335.747H899.5ZM899.5 339.756V341.76H900.5V339.756H899.5ZM899.5 343.765V345.769H900.5V343.765H899.5ZM899.5 347.773V349.778H900.5V347.773H899.5ZM899.5 351.782V353.787H900.5V351.782H899.5ZM899.5 355.791V357.796H900.5V355.791H899.5ZM899.5 359.8V361.805H900.5V359.8H899.5ZM899.5 363.809V365.814H900.5V363.809H899.5ZM899.5 367.818V369.823H900.5V367.818H899.5ZM899.5 371.827V373.831H900.5V371.827H899.5ZM899.5 375.836V377.84H900.5V375.836H899.5ZM899.5 379.845V381.849H900.5V379.845H899.5ZM899.5 383.854V385.858H900.5V383.854H899.5ZM899.5 387.863V389.867H900.5V387.863H899.5ZM899.5 391.872V393.876H900.5V391.872H899.5ZM899.5 395.88V397.885H900.5V395.88H899.5ZM899.5 399.889V401.894H900.5V399.889H899.5ZM899.5 403.898V405.903H900.5V403.898H899.5ZM899.5 407.907V409.912H900.5V407.907H899.5ZM899.5 411.916V413.921H900.5V411.916H899.5ZM899.5 415.925V417.929H900.5V415.925H899.5ZM899.5 419.934V420.937H900.5V419.934H899.5ZM900 420.437H898.999V421.437H900V420.437ZM896.997 420.437H894.994V421.437H896.997V420.437ZM892.992 420.437H890.99V421.437H892.992V420.437ZM888.988 420.437H886.985V421.437H888.988V420.437ZM884.983 420.437H882.981V421.437H884.983V420.437ZM880.979 420.437H878.977V421.437H880.979V420.437ZM876.974 420.437H874.972V421.437H876.974V420.437ZM872.97 420.437H870.968V421.437H872.97V420.437ZM868.965 420.437H866.963V421.437H868.965V420.437ZM864.961 420.437H862.959V421.437H864.961V420.437ZM860.956 420.437H858.954V421.437H860.956V420.437ZM856.952 420.437H854.95V421.437H856.952V420.437ZM852.948 420.437H850.945V421.437H852.948V420.437ZM848.943 420.437H846.941V421.437H848.943V420.437ZM844.939 420.437H842.936V421.437H844.939V420.437ZM840.934 420.437H838.932V421.437H840.934V420.437ZM836.93 420.437H834.927V421.437H836.93V420.437ZM832.925 420.437H830.923V421.437H832.925V420.437ZM828.921 420.437H826.919V421.437H828.921V420.437ZM824.916 420.437H822.914V421.437H824.916V420.437ZM820.912 420.437H818.91V421.437H820.912V420.437ZM816.907 420.437H814.905V421.437H816.907V420.437ZM812.903 420.437H810.901V421.437H812.903V420.437ZM808.898 420.437H806.896V421.437H808.898V420.437ZM804.894 420.437H802.892V421.437H804.894V420.437ZM800.889 420.437H798.887V421.437H800.889V420.437ZM796.885 420.437H794.883V421.437H796.885V420.437ZM792.881 420.437H790.878V421.437H792.881V420.437ZM788.876 420.437H786.874V421.437H788.876V420.437ZM784.872 420.437H782.869V421.437H784.872V420.437ZM780.867 420.437H778.865V421.437H780.867V420.437ZM776.863 420.437H774.86V421.437H776.863V420.437ZM772.858 420.437H770.856V421.437H772.858V420.437ZM768.854 420.437H766.851V421.437H768.854V420.437ZM764.849 420.437H762.847V421.437H764.849V420.437ZM760.845 420.437H758.843V421.437H760.845V420.437ZM756.84 420.437H754.838V421.437H756.84V420.437ZM752.836 420.437H750.834V421.437H752.836V420.437ZM748.831 420.437H746.829V421.437H748.831V420.437ZM744.827 420.437H742.825V421.437H744.827V420.437ZM740.823 420.437H738.82V421.437H740.823V420.437ZM736.818 420.437H734.816V421.437H736.818V420.437ZM732.814 420.437H730.811V421.437H732.814V420.437ZM728.809 420.437H726.807V421.437H728.809V420.437ZM724.805 420.437H722.802V421.437H724.805V420.437ZM720.8 420.437H718.798V421.437H720.8V420.437ZM716.796 420.437H714.794V421.437H716.796V420.437ZM712.791 420.437H710.789V421.437H712.791V420.437ZM708.787 420.437H706.785V421.437H708.787V420.437ZM704.782 420.437H702.78V421.437H704.782V420.437ZM700.778 420.437H698.776V421.437H700.778V420.437ZM696.774 420.437H694.771V421.437H696.774V420.437ZM692.769 420.437H690.767V421.437H692.769V420.437ZM688.765 420.437H686.762V421.437H688.765V420.437ZM684.76 420.437H682.758V421.437H684.76V420.437ZM680.756 420.437H678.753V421.437H680.756V420.437ZM676.751 420.437H674.749V421.437H676.751V420.437ZM672.747 420.437H670.745V421.437H672.747V420.437ZM668.742 420.437H666.74V421.437H668.742V420.437ZM664.738 420.437H662.736V421.437H664.738V420.437ZM660.733 420.437H658.731V421.437H660.733V420.437ZM656.729 420.437H654.727V421.437H656.729V420.437ZM652.725 420.437H650.722V421.437H652.725V420.437ZM648.72 420.437H646.718V421.437H648.72V420.437ZM644.716 420.437H642.713V421.437H644.716V420.437ZM640.711 420.437H638.709V421.437H640.711V420.437ZM636.707 420.437H634.704V421.437H636.707V420.437ZM632.702 420.437H630.7V421.437H632.702V420.437ZM628.698 420.437H626.696V421.437H628.698V420.437ZM624.693 420.437H622.691V421.437H624.693V420.437ZM620.689 420.437H618.687V421.437H620.689V420.437ZM616.684 420.437H614.682V421.437H616.684V420.437ZM612.68 420.437H610.678V421.437H612.68V420.437ZM608.675 420.437H606.673V421.437H608.675V420.437ZM604.671 420.437H602.669V421.437H604.671V420.437ZM600.667 420.437H598.664V421.437H600.667V420.437ZM596.662 420.437H594.66V421.437H596.662V420.437ZM592.658 420.437H590.655V421.437H592.658V420.437ZM588.653 420.437H586.651V421.437H588.653V420.437ZM584.649 420.437H582.647V421.437H584.649V420.437ZM580.644 420.437H578.642V421.437H580.644V420.437ZM576.64 420.437H574.638V421.437H576.64V420.437ZM572.635 420.437H570.633V421.437H572.635V420.437ZM568.631 420.437H566.629V421.437H568.631V420.437ZM564.626 420.437H562.624V421.437H564.626V420.437ZM560.622 420.437H558.62V421.437H560.622V420.437ZM556.618 420.437H554.615V421.437H556.618V420.437ZM552.613 420.437H550.611V421.437H552.613V420.437ZM548.609 420.437H546.606V421.437H548.609V420.437ZM544.604 420.437H542.602V421.437H544.604V420.437ZM540.6 420.437H538.598V421.437H540.6V420.437ZM536.595 420.437H534.593V421.437H536.595V420.437ZM532.591 420.437H530.589V421.437H532.591V420.437ZM528.586 420.437H526.584V421.437H528.586V420.437ZM524.582 420.437H522.58V421.437H524.582V420.437ZM520.577 420.437H518.575V421.437H520.577V420.437ZM516.573 420.437H514.571V421.437H516.573V420.437ZM512.569 420.437H510.566V421.437H512.569V420.437ZM508.564 420.437H506.562V421.437H508.564V420.437ZM504.56 420.437H502.557V421.437H504.56V420.437ZM500.555 420.437H498.553V421.437H500.555V420.437ZM496.551 420.437H494.548V421.437H496.551V420.437ZM492.546 420.437H490.544V421.437H492.546V420.437ZM488.542 420.437H486.54V421.437H488.542V420.437ZM484.537 420.437H482.535V421.437H484.537V420.437ZM480.533 420.437H478.531V421.437H480.533V420.437ZM476.528 420.437H474.526V421.437H476.528V420.437ZM472.524 420.437H470.522V421.437H472.524V420.437ZM468.52 420.437H466.517V421.437H468.52V420.437ZM464.515 420.437H462.513V421.437H464.515V420.437ZM460.511 420.437H458.508V421.437H460.511V420.437ZM456.506 420.437H454.504V421.437H456.506V420.437ZM452.502 420.437H450.5V421.437H452.502V420.437ZM448.497 420.437H446.495V421.437H448.497V420.437ZM444.493 420.437H442.491V421.437H444.493V420.437ZM440.488 420.437H438.486V421.437H440.488V420.437ZM436.484 420.437H434.482V421.437H436.484V420.437ZM432.479 420.437H430.477V421.437H432.479V420.437ZM428.475 420.437H426.473V421.437H428.475V420.437ZM424.471 420.437H422.468V421.437H424.471V420.437ZM420.466 420.437H418.464V421.437H420.466V420.437ZM416.462 420.437H414.459V421.437H416.462V420.437ZM412.457 420.437H410.455V421.437H412.457V420.437ZM408.453 420.437H406.45V421.437H408.453V420.437ZM404.448 420.437H402.446V421.437H404.448V420.437ZM400.444 420.437H398.442V421.437H400.444V420.437ZM396.439 420.437H394.437V421.437H396.439V420.437ZM392.435 420.437H390.433V421.437H392.435V420.437ZM388.43 420.437H386.428V421.437H388.43V420.437ZM384.426 420.437H382.424V421.437H384.426V420.437ZM380.421 420.437H378.419V421.437H380.421V420.437ZM376.417 420.437H374.415V421.437H376.417V420.437ZM372.412 420.437H370.41V421.437H372.412V420.437ZM368.408 420.437H366.406V421.437H368.408V420.437ZM364.403 420.437H362.401V421.437H364.403V420.437ZM360.399 420.437H358.397V421.437H360.399V420.437ZM356.394 420.437H354.392V421.437H356.394V420.437ZM352.39 420.437H350.388V421.437H352.39V420.437ZM348.385 420.437H346.383V421.437H348.385V420.437ZM344.381 420.437H342.378V421.437H344.381V420.437ZM340.376 420.437H338.374V421.437H340.376V420.437ZM336.372 420.437H334.369V421.437H336.372V420.437ZM332.367 420.437H330.365V421.437H332.367V420.437ZM328.363 420.437H326.36V421.437H328.363V420.437ZM324.358 420.437H322.356V421.437H324.358V420.437ZM320.354 420.437H318.351V421.437H320.354V420.437ZM316.349 420.437H314.347V421.437H316.349V420.437ZM312.345 420.437H310.342V421.437H312.345V420.437ZM308.34 420.437H306.338V421.437H308.34V420.437ZM304.336 420.437H302.333V421.437H304.336V420.437ZM300.331 420.437H298.329V421.437H300.331V420.437ZM296.327 420.437H294.324V421.437H296.327V420.437ZM292.322 420.437H290.32V421.437H292.322V420.437ZM288.318 420.437H286.315V421.437H288.318V420.437ZM284.313 420.437H282.311V421.437H284.313V420.437ZM280.308 420.437H278.306V421.437H280.308V420.437ZM276.304 420.437H274.302V421.437H276.304V420.437ZM272.299 420.437H270.297V421.437H272.299V420.437ZM268.295 420.437H266.293V421.437H268.295V420.437ZM264.29 420.437H262.288V421.437H264.29V420.437ZM260.286 420.437H258.284V421.437H260.286V420.437ZM256.281 420.437H254.279V421.437H256.281V420.437ZM252.277 420.437H250.275V421.437H252.277V420.437ZM248.272 420.437H246.27V421.437H248.272V420.437ZM244.268 420.437H242.266V421.437H244.268V420.437ZM240.263 420.437H238.261V421.437H240.263V420.437ZM236.259 420.437H234.257V421.437H236.259V420.437ZM232.254 420.437H230.252V421.437H232.254V420.437ZM228.25 420.437H226.247V421.437H228.25V420.437ZM224.245 420.437H222.243V421.437H224.245V420.437ZM220.241 420.437H218.238V421.437H220.241V420.437ZM216.236 420.437H214.234V421.437H216.236V420.437ZM212.232 420.437H210.229V421.437H212.232V420.437ZM208.227 420.437H206.225V421.437H208.227V420.437ZM204.223 420.437H202.22V421.437H204.223V420.437ZM200.218 420.437H198.216V421.437H200.218V420.437ZM196.214 420.437H194.211V421.437H196.214V420.437ZM192.209 420.437H190.207V421.437H192.209V420.437ZM188.205 420.437H186.202V421.437H188.205V420.437ZM184.2 420.437H182.198V421.437H184.2V420.437ZM180.196 420.437H178.193V421.437H180.196V420.437ZM176.191 420.437H174.189V421.437H176.191V420.437ZM172.187 420.437H170.184V421.437H172.187V420.437ZM168.182 420.437H166.18V421.437H168.182V420.437ZM164.177 420.437H162.175V421.437H164.177V420.437ZM160.173 420.437H158.171V421.437H160.173V420.437ZM156.168 420.437H154.166V421.437H156.168V420.437ZM152.164 420.437H150.162V421.437H152.164V420.437ZM148.159 420.437H146.157V421.437H148.159V420.437ZM144.155 420.437H142.153V421.437H144.155V420.437ZM140.15 420.437H138.148V421.437H140.15V420.437ZM136.146 420.437H134.144V421.437H136.146V420.437ZM132.141 420.437H130.139V421.437H132.141V420.437ZM128.137 420.437H126.135V421.437H128.137V420.437ZM124.132 420.437H122.13V421.437H124.132V420.437ZM120.128 420.437H118.126V421.437H120.128V420.437ZM116.123 420.437H114.121V421.437H116.123V420.437ZM112.119 420.437H110.117V421.437H112.119V420.437ZM108.114 420.437H106.112V421.437H108.114V420.437ZM104.11 420.437H102.107V421.437H104.11V420.437ZM100.105 420.437H98.103V421.437H100.105V420.437ZM96.1007 420.437H94.0984V421.437H96.1007V420.437ZM92.0962 420.437H90.0939V421.437H92.0962V420.437ZM88.0917 420.437H86.0894V421.437H88.0917V420.437ZM84.0872 420.437H82.0849V421.437H84.0872V420.437ZM80.0826 420.437H78.0804V421.437H80.0826V420.437ZM76.0781 420.437H74.0759V421.437H76.0781V420.437ZM72.0736 420.437H70.0714V421.437H72.0736V420.437ZM68.0691 420.437H66.0668V421.437H68.0691V420.437ZM64.0646 420.437H62.0623V421.437H64.0646V420.437ZM60.0601 420.437H58.0578V421.437H60.0601V420.437ZM56.0555 420.437H54.0533V421.437H56.0555V420.437ZM52.051 420.437H50.0488V421.437H52.051V420.437ZM48.0465 420.437H46.0443V421.437H48.0465V420.437ZM44.042 420.437H42.0397V421.437H44.042V420.437ZM40.0375 420.437H38.0352V421.437H40.0375V420.437ZM36.033 420.437H34.0307V421.437H36.033V420.437ZM32.0284 420.437H30.0262V421.437H32.0284V420.437ZM28.0239 420.437H26.0217V421.437H28.0239V420.437ZM24.0194 420.437H22.0172V421.437H24.0194V420.437ZM20.0149 420.437H18.0126V421.437H20.0149V420.437ZM16.0104 420.437H14.0081V421.437H16.0104V420.437ZM12.0059 420.437H10.0036V421.437H12.0059V420.437ZM8.00134 420.437H5.99908V421.437H8.00134V420.437ZM3.99683 420.437H3V421.437H3.99683V420.437ZM2.5 420.937V421.97H3.5V420.937H2.5ZM2.5 424.037V426.103H3.5V424.037H2.5ZM2.5 428.169V430.236H3.5V428.169H2.5ZM2.5 432.302V434.369H3.5V432.302H2.5ZM2.5 436.435V438.502H3.5V436.435H2.5ZM2.5 440.568V442.635H3.5V440.568H2.5ZM2.5 444.701V446.767H3.5V444.701H2.5ZM2.5 448.834V450.9H3.5V448.834H2.5Z" fill="#A23E29"/>
</svg>
