<svg width="901" height="80" viewBox="0 0 901 80" fill="none" xmlns="http://www.w3.org/2000/svg">
<path d="M900 46V46.5H900.5V46H900ZM3 46V45.5H2.5V46H3ZM3 79.5L5.88678 74.5H0.11322L3 79.5ZM899.5 0V0.958333H900.5V0H899.5ZM899.5 2.875V4.79167H900.5V2.875H899.5ZM899.5 6.70833V8.625H900.5V6.70833H899.5ZM899.5 10.5417V12.4583H900.5V10.5417H899.5ZM899.5 14.375V16.2917H900.5V14.375H899.5ZM899.5 18.2083V20.125H900.5V18.2083H899.5ZM899.5 22.0417V23.9583H900.5V22.0417H899.5ZM899.5 25.875V27.7917H900.5V25.875H899.5ZM899.5 29.7083V31.625H900.5V29.7083H899.5ZM899.5 33.5417V35.4583H900.5V33.5417H899.5ZM899.5 37.375V39.2917H900.5V37.375H899.5ZM899.5 41.2083V43.125H900.5V41.2083H899.5ZM899.5 45.0417V46H900.5V45.0417H899.5ZM900 45.5H898.999V46.5H900V45.5ZM896.997 45.5H894.994V46.5H896.997V45.5ZM892.992 45.5H890.99V46.5H892.992V45.5ZM888.988 45.5H886.985V46.5H888.988V45.5ZM884.983 45.5H882.981V46.5H884.983V45.5ZM880.979 45.5H878.977V46.5H880.979V45.5ZM876.974 45.5H874.972V46.5H876.974V45.5ZM872.97 45.5H870.968V46.5H872.97V45.5ZM868.965 45.5H866.963V46.5H868.965V45.5ZM864.961 45.5H862.959V46.5H864.961V45.5ZM860.956 45.5H858.954V46.5H860.956V45.5ZM856.952 45.5H854.95V46.5H856.952V45.5ZM852.948 45.5H850.945V46.5H852.948V45.5ZM848.943 45.5H846.941V46.5H848.943V45.5ZM844.939 45.5H842.936V46.5H844.939V45.5ZM840.934 45.5H838.932V46.5H840.934V45.5ZM836.93 45.5H834.927V46.5H836.93V45.5ZM832.925 45.5H830.923V46.5H832.925V45.5ZM828.921 45.5H826.919V46.5H828.921V45.5ZM824.916 45.5H822.914V46.5H824.916V45.5ZM820.912 45.5H818.91V46.5H820.912V45.5ZM816.907 45.5H814.905V46.5H816.907V45.5ZM812.903 45.5H810.901V46.5H812.903V45.5ZM808.898 45.5H806.896V46.5H808.898V45.5ZM804.894 45.5H802.892V46.5H804.894V45.5ZM800.889 45.5H798.887V46.5H800.889V45.5ZM796.885 45.5H794.883V46.5H796.885V45.5ZM792.881 45.5H790.878V46.5H792.881V45.5ZM788.876 45.5H786.874V46.5H788.876V45.5ZM784.872 45.5H782.869V46.5H784.872V45.5ZM780.867 45.5H778.865V46.5H780.867V45.5ZM776.863 45.5H774.86V46.5H776.863V45.5ZM772.858 45.5H770.856V46.5H772.858V45.5ZM768.854 45.5H766.851V46.5H768.854V45.5ZM764.849 45.5H762.847V46.5H764.849V45.5ZM760.845 45.5H758.843V46.5H760.845V45.5ZM756.84 45.5H754.838V46.5H756.84V45.5ZM752.836 45.5H750.834V46.5H752.836V45.5ZM748.831 45.5H746.829V46.5H748.831V45.5ZM744.827 45.5H742.825V46.5H744.827V45.5ZM740.823 45.5H738.82V46.5H740.823V45.5ZM736.818 45.5H734.816V46.5H736.818V45.5ZM732.814 45.5H730.811V46.5H732.814V45.5ZM728.809 45.5H726.807V46.5H728.809V45.5ZM724.805 45.5H722.802V46.5H724.805V45.5ZM720.8 45.5H718.798V46.5H720.8V45.5ZM716.796 45.5H714.794V46.5H716.796V45.5ZM712.791 45.5H710.789V46.5H712.791V45.5ZM708.787 45.5H706.785V46.5H708.787V45.5ZM704.782 45.5H702.78V46.5H704.782V45.5ZM700.778 45.5H698.776V46.5H700.778V45.5ZM696.774 45.5H694.771V46.5H696.774V45.5ZM692.769 45.5H690.767V46.5H692.769V45.5ZM688.765 45.5H686.762V46.5H688.765V45.5ZM684.76 45.5H682.758V46.5H684.76V45.5ZM680.756 45.5H678.753V46.5H680.756V45.5ZM676.751 45.5H674.749V46.5H676.751V45.5ZM672.747 45.5H670.745V46.5H672.747V45.5ZM668.742 45.5H666.74V46.5H668.742V45.5ZM664.738 45.5H662.736V46.5H664.738V45.5ZM660.733 45.5H658.731V46.5H660.733V45.5ZM656.729 45.5H654.727V46.5H656.729V45.5ZM652.725 45.5H650.722V46.5H652.725V45.5ZM648.72 45.5H646.718V46.5H648.72V45.5ZM644.716 45.5H642.713V46.5H644.716V45.5ZM640.711 45.5H638.709V46.5H640.711V45.5ZM636.707 45.5H634.704V46.5H636.707V45.5ZM632.702 45.5H630.7V46.5H632.702V45.5ZM628.698 45.5H626.696V46.5H628.698V45.5ZM624.693 45.5H622.691V46.5H624.693V45.5ZM620.689 45.5H618.687V46.5H620.689V45.5ZM616.684 45.5H614.682V46.5H616.684V45.5ZM612.68 45.5H610.678V46.5H612.68V45.5ZM608.675 45.5H606.673V46.5H608.675V45.5ZM604.671 45.5H602.669V46.5H604.671V45.5ZM600.667 45.5H598.664V46.5H600.667V45.5ZM596.662 45.5H594.66V46.5H596.662V45.5ZM592.658 45.5H590.655V46.5H592.658V45.5ZM588.653 45.5H586.651V46.5H588.653V45.5ZM584.649 45.5H582.647V46.5H584.649V45.5ZM580.644 45.5H578.642V46.5H580.644V45.5ZM576.64 45.5H574.638V46.5H576.64V45.5ZM572.635 45.5H570.633V46.5H572.635V45.5ZM568.631 45.5H566.629V46.5H568.631V45.5ZM564.626 45.5H562.624V46.5H564.626V45.5ZM560.622 45.5H558.62V46.5H560.622V45.5ZM556.618 45.5H554.615V46.5H556.618V45.5ZM552.613 45.5H550.611V46.5H552.613V45.5ZM548.609 45.5H546.606V46.5H548.609V45.5ZM544.604 45.5H542.602V46.5H544.604V45.5ZM540.6 45.5H538.598V46.5H540.6V45.5ZM536.595 45.5H534.593V46.5H536.595V45.5ZM532.591 45.5H530.589V46.5H532.591V45.5ZM528.586 45.5H526.584V46.5H528.586V45.5ZM524.582 45.5H522.58V46.5H524.582V45.5ZM520.577 45.5H518.575V46.5H520.577V45.5ZM516.573 45.5H514.571V46.5H516.573V45.5ZM512.569 45.5H510.566V46.5H512.569V45.5ZM508.564 45.5H506.562V46.5H508.564V45.5ZM504.56 45.5H502.557V46.5H504.56V45.5ZM500.555 45.5H498.553V46.5H500.555V45.5ZM496.551 45.5H494.548V46.5H496.551V45.5ZM492.546 45.5H490.544V46.5H492.546V45.5ZM488.542 45.5H486.54V46.5H488.542V45.5ZM484.537 45.5H482.535V46.5H484.537V45.5ZM480.533 45.5H478.531V46.5H480.533V45.5ZM476.528 45.5H474.526V46.5H476.528V45.5ZM472.524 45.5H470.522V46.5H472.524V45.5ZM468.52 45.5H466.517V46.5H468.52V45.5ZM464.515 45.5H462.513V46.5H464.515V45.5ZM460.511 45.5H458.508V46.5H460.511V45.5ZM456.506 45.5H454.504V46.5H456.506V45.5ZM452.502 45.5H450.5V46.5H452.502V45.5ZM448.497 45.5H446.495V46.5H448.497V45.5ZM444.493 45.5H442.491V46.5H444.493V45.5ZM440.488 45.5H438.486V46.5H440.488V45.5ZM436.484 45.5H434.482V46.5H436.484V45.5ZM432.479 45.5H430.477V46.5H432.479V45.5ZM428.475 45.5H426.473V46.5H428.475V45.5ZM424.471 45.5H422.468V46.5H424.471V45.5ZM420.466 45.5H418.464V46.5H420.466V45.5ZM416.462 45.5H414.459V46.5H416.462V45.5ZM412.457 45.5H410.455V46.5H412.457V45.5ZM408.453 45.5H406.45V46.5H408.453V45.5ZM404.448 45.5H402.446V46.5H404.448V45.5ZM400.444 45.5H398.442V46.5H400.444V45.5ZM396.439 45.5H394.437V46.5H396.439V45.5ZM392.435 45.5H390.433V46.5H392.435V45.5ZM388.43 45.5H386.428V46.5H388.43V45.5ZM384.426 45.5H382.424V46.5H384.426V45.5ZM380.421 45.5H378.419V46.5H380.421V45.5ZM376.417 45.5H374.415V46.5H376.417V45.5ZM372.412 45.5H370.41V46.5H372.412V45.5ZM368.408 45.5H366.406V46.5H368.408V45.5ZM364.403 45.5H362.401V46.5H364.403V45.5ZM360.399 45.5H358.397V46.5H360.399V45.5ZM356.394 45.5H354.392V46.5H356.394V45.5ZM352.39 45.5H350.388V46.5H352.39V45.5ZM348.385 45.5H346.383V46.5H348.385V45.5ZM344.381 45.5H342.378V46.5H344.381V45.5ZM340.376 45.5H338.374V46.5H340.376V45.5ZM336.372 45.5H334.369V46.5H336.372V45.5ZM332.367 45.5H330.365V46.5H332.367V45.5ZM328.363 45.5H326.36V46.5H328.363V45.5ZM324.358 45.5H322.356V46.5H324.358V45.5ZM320.354 45.5H318.351V46.5H320.354V45.5ZM316.349 45.5H314.347V46.5H316.349V45.5ZM312.345 45.5H310.342V46.5H312.345V45.5ZM308.34 45.5H306.338V46.5H308.34V45.5ZM304.336 45.5H302.333V46.5H304.336V45.5ZM300.331 45.5H298.329V46.5H300.331V45.5ZM296.327 45.5H294.324V46.5H296.327V45.5ZM292.322 45.5H290.32V46.5H292.322V45.5ZM288.318 45.5H286.315V46.5H288.318V45.5ZM284.313 45.5H282.311V46.5H284.313V45.5ZM280.308 45.5H278.306V46.5H280.308V45.5ZM276.304 45.5H274.302V46.5H276.304V45.5ZM272.299 45.5H270.297V46.5H272.299V45.5ZM268.295 45.5H266.293V46.5H268.295V45.5ZM264.29 45.5H262.288V46.5H264.29V45.5ZM260.286 45.5H258.284V46.5H260.286V45.5ZM256.281 45.5H254.279V46.5H256.281V45.5ZM252.277 45.5H250.275V46.5H252.277V45.5ZM248.272 45.5H246.27V46.5H248.272V45.5ZM244.268 45.5H242.266V46.5H244.268V45.5ZM240.263 45.5H238.261V46.5H240.263V45.5ZM236.259 45.5H234.257V46.5H236.259V45.5ZM232.254 45.5H230.252V46.5H232.254V45.5ZM228.25 45.5H226.247V46.5H228.25V45.5ZM224.245 45.5H222.243V46.5H224.245V45.5ZM220.241 45.5H218.238V46.5H220.241V45.5ZM216.236 45.5H214.234V46.5H216.236V45.5ZM212.232 45.5H210.229V46.5H212.232V45.5ZM208.227 45.5H206.225V46.5H208.227V45.5ZM204.223 45.5H202.22V46.5H204.223V45.5ZM200.218 45.5H198.216V46.5H200.218V45.5ZM196.214 45.5H194.211V46.5H196.214V45.5ZM192.209 45.5H190.207V46.5H192.209V45.5ZM188.205 45.5H186.202V46.5H188.205V45.5ZM184.2 45.5H182.198V46.5H184.2V45.5ZM180.196 45.5H178.193V46.5H180.196V45.5ZM176.191 45.5H174.189V46.5H176.191V45.5ZM172.187 45.5H170.184V46.5H172.187V45.5ZM168.182 45.5H166.18V46.5H168.182V45.5ZM164.177 45.5H162.175V46.5H164.177V45.5ZM160.173 45.5H158.171V46.5H160.173V45.5ZM156.168 45.5H154.166V46.5H156.168V45.5ZM152.164 45.5H150.162V46.5H152.164V45.5ZM148.159 45.5H146.157V46.5H148.159V45.5ZM144.155 45.5H142.153V46.5H144.155V45.5ZM140.15 45.5H138.148V46.5H140.15V45.5ZM136.146 45.5H134.144V46.5H136.146V45.5ZM132.141 45.5H130.139V46.5H132.141V45.5ZM128.137 45.5H126.135V46.5H128.137V45.5ZM124.132 45.5H122.13V46.5H124.132V45.5ZM120.128 45.5H118.126V46.5H120.128V45.5ZM116.123 45.5H114.121V46.5H116.123V45.5ZM112.119 45.5H110.117V46.5H112.119V45.5ZM108.114 45.5H106.112V46.5H108.114V45.5ZM104.11 45.5H102.107V46.5H104.11V45.5ZM100.105 45.5H98.103V46.5H100.105V45.5ZM96.1007 45.5H94.0984V46.5H96.1007V45.5ZM92.0962 45.5H90.0939V46.5H92.0962V45.5ZM88.0917 45.5H86.0894V46.5H88.0917V45.5ZM84.0872 45.5H82.0849V46.5H84.0872V45.5ZM80.0826 45.5H78.0804V46.5H80.0826V45.5ZM76.0781 45.5H74.0759V46.5H76.0781V45.5ZM72.0736 45.5H70.0714V46.5H72.0736V45.5ZM68.0691 45.5H66.0668V46.5H68.0691V45.5ZM64.0646 45.5H62.0623V46.5H64.0646V45.5ZM60.0601 45.5H58.0578V46.5H60.0601V45.5ZM56.0555 45.5H54.0533V46.5H56.0555V45.5ZM52.051 45.5H50.0488V46.5H52.051V45.5ZM48.0465 45.5H46.0443V46.5H48.0465V45.5ZM44.042 45.5H42.0397V46.5H44.042V45.5ZM40.0375 45.5H38.0352V46.5H40.0375V45.5ZM36.033 45.5H34.0307V46.5H36.033V45.5ZM32.0284 45.5H30.0262V46.5H32.0284V45.5ZM28.0239 45.5H26.0217V46.5H28.0239V45.5ZM24.0194 45.5H22.0172V46.5H24.0194V45.5ZM20.0149 45.5H18.0126V46.5H20.0149V45.5ZM16.0104 45.5H14.0081V46.5H16.0104V45.5ZM12.0059 45.5H10.0036V46.5H12.0059V45.5ZM8.00134 45.5H5.99908V46.5H8.00134V45.5ZM3.99683 45.5H3V46.5H3.99683V45.5ZM2.5 46V47.0469H3.5V46H2.5ZM2.5 49.1406V51.2344H3.5V49.1406H2.5ZM2.5 53.3281V55.4219H3.5V53.3281H2.5ZM2.5 57.5156V59.6094H3.5V57.5156H2.5ZM2.5 61.7031V63.7969H3.5V61.7031H2.5ZM2.5 65.8906V67.9844H3.5V65.8906H2.5ZM2.5 70.0781V72.1719H3.5V70.0781H2.5ZM2.5 74.2656V76.3594H3.5V74.2656H2.5Z" fill="#A23E29"/>
</svg>
